<svg width="223" height="207" viewBox="0 0 223 207" fill="none" xmlns="http://www.w3.org/2000/svg">
<path d="M175.561 130.73L130.962 92.1638L153.228 76.1619L175.561 130.73Z" fill="#FFB2B2"/>
<path d="M41.498 139.704L72.4613 120.71L58.9236 107.832L41.498 139.704Z" fill="#B5C1FF"/>
<circle cx="107.227" cy="95.8186" r="50" transform="rotate(6.95447 107.227 95.8186)" fill="#FFB2B2"/>
<mask id="mask0" mask-type="alpha" maskUnits="userSpaceOnUse" x="40" y="29" width="134" height="134">
<circle cx="107.227" cy="95.8186" r="50" transform="rotate(25.0778 107.227 95.8186)" fill="#B2B5FF"/>
</mask>
<g mask="url(#mask0)">
<rect x="10.8994" y="124.714" width="67" height="149" transform="rotate(-64.9222 10.8994 124.714)" fill="#B6C1FF"/>
</g>
<path d="M107.227 95.8186C101.375 108.324 86.4933 113.718 73.9878 107.866C61.4822 102.014 56.0885 87.1317 61.9406 74.6262C67.7928 62.1206 82.6746 56.7269 95.1802 62.5791C107.686 68.4312 113.079 83.313 107.227 95.8186Z" fill="#FFB2B2"/>
<path d="M152.514 117.011C146.662 129.517 131.78 134.91 119.274 129.058C106.769 123.206 101.375 108.324 107.227 95.8186C113.079 83.313 127.961 77.9193 140.467 83.7715C152.972 89.6236 158.366 104.505 152.514 117.011Z" fill="#B5C1FF"/>
<circle cx="83.2274" cy="122.819" r="3" fill="white"/>
<circle cx="107.227" cy="122.819" r="3" fill="white"/>
<circle cx="131.227" cy="122.819" r="3" fill="white"/>
<circle cx="83.2274" cy="71.8186" r="3" fill="white"/>
<circle cx="107.227" cy="71.8186" r="3" fill="white"/>
<circle cx="131.227" cy="71.8186" r="3" fill="white"/>
</svg>
